<?xml version="1.0" encoding="utf-8"?>
<!-- Generator: Adobe Illustrator 26.0.1, SVG Export Plug-In . SVG Version: 6.00 Build 0)  -->
<svg version="1.1" id="Layer_1" xmlns="http://www.w3.org/2000/svg" xmlns:xlink="http://www.w3.org/1999/xlink" x="0px" y="0px"
	 viewBox="0 0 1000 600" style="enable-background:new 0 0 1000 600;" xml:space="preserve">
<style type="text/css">
	.st0{fill:#61BE7D;}
	.st1{fill:#FFFFFF;}
</style>
<g>
	<path class="st0" d="M306.7,184.5c62-28.2,126.9-41.7,194.4-41.6c67.3,0,132,13.5,193.2,41.3c2.1-0.9,2.5-2.6,3.3-4
		c24-41.5,48-83,72-124.6c1.1-2,2.3-4,3.7-5.7c5-5.9,13.8-7.3,20.1-3.3c6.6,4.1,9.3,12.9,5.8,20.1c-2,4.1-4.4,7.9-6.6,11.9
		c-22.1,38.1-44.1,76.3-66.2,114.4c-1,1.8-1.9,3.6-2.8,5.3c1.1,2,3,2.5,4.6,3.4c42,23.6,79.2,53.2,111.6,88.9
		c40.1,44.2,70,94.4,90,150.6c10.1,28.4,17.2,57.5,21.4,87.3c1.2,8.2,2.1,16.3,2.9,24.5c0.2,1.7-0.4,2.4-1.9,2.5
		c-1.6,0.1-3.3,0.1-4.9,0.1c-297.8,0-595.6,0-893.4,0c-7.7,0-7.6,0.8-6.6-7.9c1.8-16.6,4.3-33,7.7-49.4
		c6.6-31.3,16.5-61.6,29.5-90.8c15.5-34.8,35.3-67,59.2-96.7c26.5-32.9,57.1-61.5,91.8-85.7c12-8.4,24.4-16.1,37.1-23.3
		c1.3-0.7,2.5-1.4,3.8-2.1c1.3-0.8,1.4-1.9,0.7-3.1c-1-1.8-2-3.6-3.1-5.4c-23.2-40.1-46.4-80.2-69.5-120.3c-2-3.4-3.8-6.8-3.8-10.9
		c0-6,3.3-12.4,10.1-14.8c5.7-2,13.4-1.2,18.1,5.6c2.1,3,3.9,6.3,5.7,9.5c23.2,40.1,46.3,80.2,69.5,120.3
		C304.9,181.8,305.6,182.9,306.7,184.5z"/>
	<path class="st1" d="M254,388.9c-0.6-20.1,16.8-37.8,37.4-37.9c18.2-0.1,37.7,14,37.8,37.6c0.2,20.9-16.1,37.8-37.5,37.8
		C268.7,426.5,253.5,407.5,254,388.9z"/>
	<path class="st1" d="M747.3,389.2c0,18-14.4,37.5-38.1,37.2c-24.1-0.3-37.6-20.4-37.3-38.1c0.5-22.2,19-37.4,38.2-37.2
		C728.7,351.3,747.4,366.5,747.3,389.2z"/>
</g>
</svg>
