<?xml version="1.0" encoding="utf-8"?>
<!-- Generator: Adobe Illustrator 26.0.1, SVG Export Plug-In . SVG Version: 6.00 Build 0)  -->
<svg version="1.1" id="Layer_1" xmlns="http://www.w3.org/2000/svg" xmlns:xlink="http://www.w3.org/1999/xlink" x="0px" y="0px"
	 viewBox="0 0 1000 250" style="enable-background:new 0 0 1000 250;" xml:space="preserve">
<style type="text/css">
	.st0{fill:#202224;}
	.st1{fill:#5682C2;}
</style>
<g>
	<path class="st0" d="M19.7,107.7c0-42.5,35.7-77.2,78.3-77.2c9.8-0.2,19.5,1.6,28.6,5.3c9.1,3.7,17.4,9.1,24.3,16L136,66.6
		c-10.2-9.8-23.8-15.2-37.9-15c-31,0-55.3,25-55.3,56.1c0,31.1,24.2,56.1,55.3,56.1c20.1,0,31.6-8.1,38.9-15.4
		c6-6,10-14.7,11.5-26.5H98v-21.2h70.9c0.8,4.4,1.2,8.8,1.1,13.2c0,15.8-4.3,35.4-18.2,49.3c-13.6,14.1-30.9,21.5-53.8,21.5
		C55.4,184.7,19.7,150.2,19.7,107.7"/>
	<path class="st0" d="M227.3,165.2c-15,0-28-12.4-28-30.1c0-17.7,13-30.1,28-30.1c15,0,28,12.2,28,30.1
		C255.3,153,242.3,165.2,227.3,165.2L227.3,165.2z M227.3,85.5c-27.4,0-49.8,20.9-49.8,49.6s22.4,49.6,49.8,49.6
		s49.8-21.1,49.8-49.6S254.8,85.4,227.3,85.5L227.3,85.5z"/>
	<path class="st0" d="M336,165.2c-15,0-28-12.4-28-30.1c0-17.7,13-30.1,28-30.1c15,0,28,12.2,28,30.1C364,153,351.1,165.3,336,165.2
		L336,165.2z M336,85.5c-27.4,0-49.8,20.9-49.8,49.6c0,28.7,22.4,49.6,49.8,49.6c27.5,0,49.8-21.1,49.8-49.6
		C385.9,106.5,363.5,85.4,336,85.5L336,85.5z"/>
	<path class="st0" d="M527,35.8h-21.8v146H527V35.8z"/>
	<path class="st0" d="M527,35.8h-21.8v146H527V35.8z"/>
	<path class="st0" d="M585.1,104.6c8.7,0,16,4.3,18.4,10.5l-44.4,18.4C558.6,114.4,574,104.6,585.1,104.6L585.1,104.6z M586.8,165.2
		c-11.1,0-19-5.1-24.1-15l66.4-27.5l-2.2-5.6c-4.1-11.1-16.7-31.6-42.5-31.6c-25.8,0-46.8,20.1-46.8,49.6
		c0,27.8,21.1,49.6,49.3,49.6c8.2,0,16.2-2,23.5-5.8c7.2-3.8,13.4-9.4,17.9-16.2l-16.9-11.3C605.6,159.7,597.9,165.2,586.8,165.2
		L586.8,165.2z"/>
	<path class="st0" d="M444.5,165.2c-15,0-27.6-12.6-27.6-29.9c0-17.3,12.6-30.3,27.6-30.3c15,0,26.4,12.8,26.4,30.3
		C470.9,152.8,459.3,165.2,444.5,165.2L444.5,165.2z M469.4,88.5v8.1h-0.8c-4.9-5.9-14.3-11.1-26.1-11.1
		c-24.8,0-47.6,21.8-47.6,49.9s22.8,49.4,47.6,49.4c11.8,0,21.2-5.2,26.1-11.3h0.8v7.1c0,19-10.2,29.2-26.5,29.2
		c-13.4,0-21.6-9.6-25-17.6l-19,7.9c3.6,8.7,9.7,16.2,17.5,21.4c7.9,5.2,17.1,8,26.5,7.9c25.6,0,47.2-15,47.2-51.7V88.5H469.4z"/>
	<path class="st1" d="M767.6,35.6H694V182h73.6V35.6z"/>
	<path class="st1" d="M904.2,184.3c41.7,0,75.5-33.8,75.5-75.5s-33.8-75.5-75.5-75.5s-75.5,33.8-75.5,75.5S862.4,184.3,904.2,184.3z
		"/>
	<path class="st0" d="M791.7,197.6h-14.2L817.9,20h14.2L791.7,197.6z"/>
</g>
</svg>
