<?xml version="1.0" encoding="utf-8"?>
<!-- Generator: Adobe Illustrator 26.0.1, SVG Export Plug-In . SVG Version: 6.00 Build 0)  -->
<svg version="1.1" id="Layer_1" xmlns="http://www.w3.org/2000/svg" xmlns:xlink="http://www.w3.org/1999/xlink" x="0px" y="0px"
	 viewBox="0 0 1000 250" style="enable-background:new 0 0 1000 250;" xml:space="preserve">
<style type="text/css">
	.st0{display:none;}
	.st1{display:inline;fill:#202224;}
	.st2{display:inline;fill:#5682C2;}
	.st3{fill:#E8EAED;}
	.st4{fill:#5682C2;}
</style>
<g class="st0">
	<path class="st1" d="M19.7,107.7c0-42.5,35.7-77.2,78.3-77.2c9.8-0.2,19.5,1.6,28.6,5.3s17.4,9.1,24.3,16L136,66.6
		c-10.2-9.8-23.8-15.2-37.9-15c-31,0-55.3,25-55.3,56.1s24.2,56.1,55.3,56.1c20.1,0,31.6-8.1,38.9-15.4c6-6,10-14.7,11.5-26.5H98
		v-21.2h70.9c0.8,4.4,1.2,8.8,1.1,13.2c0,15.8-4.3,35.4-18.2,49.3c-13.6,14.1-30.9,21.5-53.8,21.5C55.4,184.7,19.7,150.2,19.7,107.7
		"/>
	<path class="st1" d="M227.3,165.2c-15,0-28-12.4-28-30.1s13-30.1,28-30.1s28,12.2,28,30.1S242.3,165.2,227.3,165.2L227.3,165.2z
		 M227.3,85.5c-27.4,0-49.8,20.9-49.8,49.6s22.4,49.6,49.8,49.6s49.8-21.1,49.8-49.6S254.8,85.4,227.3,85.5L227.3,85.5z"/>
	<path class="st1" d="M336,165.2c-15,0-28-12.4-28-30.1s13-30.1,28-30.1s28,12.2,28,30.1S351.1,165.3,336,165.2L336,165.2z
		 M336,85.5c-27.4,0-49.8,20.9-49.8,49.6s22.4,49.6,49.8,49.6c27.5,0,49.8-21.1,49.8-49.6C385.9,106.5,363.5,85.4,336,85.5L336,85.5
		z"/>
	<path class="st1" d="M527,35.8h-21.8v146H527V35.8z"/>
	<path class="st1" d="M527,35.8h-21.8v146H527V35.8z"/>
	<path class="st1" d="M585.1,104.6c8.7,0,16,4.3,18.4,10.5l-44.4,18.4C558.6,114.4,574,104.6,585.1,104.6L585.1,104.6z M586.8,165.2
		c-11.1,0-19-5.1-24.1-15l66.4-27.5l-2.2-5.6c-4.1-11.1-16.7-31.6-42.5-31.6s-46.8,20.1-46.8,49.6c0,27.8,21.1,49.6,49.3,49.6
		c8.2,0,16.2-2,23.5-5.8c7.2-3.8,13.4-9.4,17.9-16.2l-16.9-11.3C605.6,159.7,597.9,165.2,586.8,165.2L586.8,165.2z"/>
	<path class="st1" d="M444.5,165.2c-15,0-27.6-12.6-27.6-29.9s12.6-30.3,27.6-30.3s26.4,12.8,26.4,30.3S459.3,165.2,444.5,165.2
		L444.5,165.2z M469.4,88.5v8.1h-0.8c-4.9-5.9-14.3-11.1-26.1-11.1c-24.8,0-47.6,21.8-47.6,49.9s22.8,49.4,47.6,49.4
		c11.8,0,21.2-5.2,26.1-11.3h0.8v7.1c0,19-10.2,29.2-26.5,29.2c-13.4,0-21.6-9.6-25-17.6l-19,7.9c3.6,8.7,9.7,16.2,17.5,21.4
		c7.9,5.2,17.1,8,26.5,7.9c25.6,0,47.2-15,47.2-51.7V88.5H469.4z"/>
	<path class="st2" d="M767.6,35.6H694V182h73.6V35.6z"/>
	<path class="st2" d="M904.2,184.3c41.7,0,75.5-33.8,75.5-75.5s-33.8-75.5-75.5-75.5s-75.5,33.8-75.5,75.5S862.4,184.3,904.2,184.3z
		"/>
	<path class="st1" d="M791.7,197.6h-14.2L817.9,20h14.2L791.7,197.6z"/>
</g>
<g>
	<path class="st3" d="M20.4,107.9c0-42.2,35.4-76.6,77.6-76.6c9.7-0.2,19.4,1.6,28.4,5.2c9,3.6,17.2,9,24.1,15.8l-14.8,14.8
		C125.6,57.5,112,52.1,98,52.3c-30.8,0-54.8,24.8-54.8,55.6c0,30.9,24,55.6,54.8,55.6c20,0,31.3-8,38.6-15.3c6-6,9.9-14.6,11.4-26.3
		H98v-21h70.3c0.8,4.3,1.2,8.7,1.1,13.1c0,15.7-4.3,35.1-18.1,48.9c-13.5,13.9-30.6,21.3-53.3,21.3
		C55.8,184.4,20.4,150.1,20.4,107.9"/>
	<path class="st3" d="M227,165.2c-15,0-28-12.4-28-30.1c0-17.7,13-30.1,28-30.1s28,12.2,28,30.1C255,153,242,165.2,227,165.2
		L227,165.2z M227,85.5c-27.4,0-49.8,20.9-49.8,49.6s22.4,49.6,49.8,49.6c27.4,0,49.8-21.1,49.8-49.6
		C276.8,106.5,254.4,85.5,227,85.5L227,85.5z"/>
	<path class="st3" d="M336,165.2c-15,0-28-12.4-28-30.1c0-17.7,13-30.1,28-30.1c15,0,28,12.2,28,30.1C364,153,351,165.3,336,165.2
		L336,165.2z M336,85.5c-27.4,0-49.8,20.9-49.8,49.6s22.4,49.6,49.8,49.6c27.4,0,49.8-21.1,49.8-49.6
		C385.8,106.5,363.4,85.5,336,85.5L336,85.5z"/>
	<path class="st3" d="M526,36h-22v146h22V36z"/>
	<path class="st3" d="M526,36h-22v146h22V36z"/>
	<path class="st3" d="M584.5,105c8.6,0,16,4.3,18.4,10.5L558.5,134C557.9,114.8,573.4,105,584.5,105L584.5,105z M586.1,165
		c-11.1,0-19-5.1-24-15l66.3-27.5l-2.2-5.6c-4.1-11.1-16.7-31.6-42.5-31.6S537,105.4,537,134.9c0,27.8,21,49.6,49.2,49.6
		c8.2,0,16.2-1.9,23.5-5.8c7.2-3.8,13.4-9.4,17.9-16.2l-16.9-11.3C604.9,159.5,597.2,165,586.1,165L586.1,165z"/>
	<path class="st3" d="M443.9,165c-15,0-27.6-12.6-27.6-29.9c0-17.3,12.6-30.3,27.6-30.3c15,0,26.4,12.8,26.4,30.3
		C470.3,152.6,458.7,165,443.9,165L443.9,165z M469,88v8h-0.8c-4.9-5.9-14.3-11.1-26.1-11.1c-24.8,0-47.6,21.9-47.6,49.9
		s22.8,49.5,47.6,49.5c11.9,0,21.3-5.2,26.1-11.3h0.8v7.1c0,19-10.2,29.2-26.6,29.2c-13.4,0-21.8-9.6-25.1-17.6l-19.1,7.9
		c3.6,8.7,9.7,16.2,17.7,21.5c7.9,5.2,17.2,8,26.7,8c25.8,0,47.5-15,47.5-51.8V88H469z"/>
	<path class="st3" d="M790.9,198h-14.2l40.5-178h14.2L790.9,198z"/>
	<path class="st4" d="M767.6,35.6H694V182h73.6V35.6z"/>
	<path class="st4" d="M904.2,184.3c41.7,0,75.5-33.8,75.5-75.5s-33.8-75.5-75.5-75.5s-75.5,33.8-75.5,75.5S862.4,184.3,904.2,184.3z
		"/>
</g>
</svg>
